<?xml version="1.0" encoding="UTF-8"?>
<svg width="16px" height="16px" viewBox="0 0 16 16" version="1.1" xmlns="http://www.w3.org/2000/svg" xmlns:xlink="http://www.w3.org/1999/xlink">
    <!-- Generator: Sketch 56.3 (81716) - https://sketch.com -->
    <title>X</title>
    <desc>Created with Sketch.</desc>
    <g id="页面1" stroke="none" stroke-width="1" fill="none" fill-rule="evenodd">
        <g id="下单生产-导入文件" transform="translate(-825.000000, -311.000000)">
            <g id="编组-5" transform="translate(290.000000, 100.000000)">
                <g id="编组-4" transform="translate(25.000000, 211.000000)">
                    <g id="X" transform="translate(510.000000, 0.000000)">
                        <path d="M8,0 C3.58125,0 0,3.58125 0,8 C0,12.41875 3.58125,16 8,16 C12.41875,16 16,12.41875 16,8 C16,3.58125 12.41875,0 8,0 L8,0 Z" id="Path" fill="#F5222D"></path>
                        <path d="M11.8457805,11.1081768 C12.0468462,11.3096477 12.0500378,11.6378504 11.8537593,11.8441956 L11.8537593,11.8441956 C11.6558851,12.0489161 11.3335417,12.0521656 11.1308802,11.8523194 L8,8.72789503 L4.86911975,11.8506947 C4.66805405,12.0521656 4.34411486,12.0489161 4.14624067,11.8425708 L4.14624067,11.8425708 C3.94836649,11.6378504 3.95155801,11.3080229 4.15421947,11.106552 L7.27073788,8 L4.15421947,4.89182324 C3.95315377,4.6903523 3.94996225,4.36214963 4.14624067,4.15580438 L4.14624067,4.15580438 C4.34411486,3.95108391 4.66645829,3.94783438 4.86911975,4.14768056 L8,7.27210497 L11.1308802,4.14930532 C11.331946,3.94783438 11.6558851,3.95108391 11.8537593,4.15742915 L11.8537593,4.15742915 C12.0516335,4.36214963 12.048442,4.69197706 11.8457805,4.89344801 L8.72926212,8 L11.8457805,11.1081768 L11.8457805,11.1081768 Z" id="Path" fill="#FFFFFF"></path>
                    </g>
                </g>
            </g>
        </g>
    </g>
</svg>